# xmcd CD database file
#
# Track frame offsets:
#	150
#	10897
#	24539
#	46730
#	61234
#	75359
#	93416
#	107460
#	122532
#	135743
#	149192
#	159333
#	179596
#	205768
#	223059
#	236170
#	255972
#	268086
#	282904
#	299364
#	316644
#	330459
#
# Disc length: 4665 seconds
#
# Revision: 0
# Processed by: cddbd v1.5.2PL0 Copyright (c) Steve Scherf et al.
# Submitted via: CDex 1.51
#
DISCID=36123716
DTITLE=Louis Armstrong - MTV Music History - CD 2
DYEAR=2006
DGENRE=Jazz
TTITLE0=Hello_Dolly
TTITLE1=C'Est_Si_Bon
TTITLE2=Summertime_(With_Ella_Fitzgeralg)
TTITLE3=Dream_a_Little_Dream_of_Me
TTITLE4=Down_by_the_Riverside
TTITLE5=When_You're_Smiling_(The_Whole_World_Smiles_With_You)
TTITLE6=Swing_Low_,_Sweet_Chariot
TTITLE7=Mack_the_Knife_(Theme_from_"Three_Penny_Opera")
TTITLE8=Moon_River
TTITLE9=Sittin'_in_the_Sun
TTITLE10=What_a_Wonderful_World
TTITLE11=They_Can't_Take_That_Away_From_Me_(With_Ella_Fitzgerald)
TTITLE12=On_the_Sunny_Side_of_the_Street
TTITLE13=Lazy_River
TTITLE14=Rock_my_Soul_(In_the_Bossom_of_Abraham)
TTITLE15=When_You_Wish_Upon_a_Star
TTITLE16=Cabaret
TTITLE17=The_Gypsy
TTITLE18=Everybody_Love_My_Baby
TTITLE19=Basin_Street_Blues
TTITLE20=Georgia_on_my_Mind
TTITLE21=I_Can't_Give_You_Anything_But_Love
EXTD=YEAR: 2006
EXTT0=
EXTT1=
EXTT2=
EXTT3=
EXTT4=
EXTT5=
EXTT6=
EXTT7=
EXTT8=
EXTT9=
EXTT10=
EXTT11=
EXTT12=
EXTT13=
EXTT14=
EXTT15=
EXTT16=
EXTT17=
EXTT18=
EXTT19=
EXTT20=
EXTT21=
PLAYORDER=
